# xmcd
#
# Track frame offsets:
#	150
#	17270
#	29001
#	39348
#	55553
#	59599
#	67562
#	72616
#
# Disc length: 1185 seconds
#
# Revision: 0
# Processed by: cddbd v1.5.2PL0 Copyright (c) Steve Scherf et al.
# Submitted via: EasyCDDAExtractor 16.0.6.1
#
DISCID=62049f08
DTITLE=Λέκκας Βασίλης - Ουράνιο τόξο-Ν. Πιτλόγλου
DYEAR=2004
DGENRE=Νεώτερη
TTITLE0=Λέκκας Βασίλης - Ουράνιο τόξο [Ν. Πιτλόγλου-Γ. Γιαβάρας]
TTITLE1=Άνευ ερμηνευτού - Ίριδα [Ν. Πιτλόγλου]
TTITLE2=Άνευ ερμηνευτού - Ζέφυρος [Ν. Πιτλόγλου]
TTITLE3=Άνευ ερμηνευτού - Πήγασος [Ν. Πιτλόγλου]
TTITLE4=Άνευ ερμηνευτού - Τελετουργικό [Ν. Πιτλόγλου]
TTITLE5=Άνευ ερμηνευτού - Λιτανεία [Ν. Πιτλόγλου]
TTITLE6=Άνευ ερμηνευτού - Κάθαρση [Ν. Πιτλόγλου]
TTITLE7=Λέκκας Βασίλης-παιδική χορωδία - Μετά τη βροχή [Ν. Πιτλόγλου-Γ. Γιαβάρ
TTITLE7=ας]
EXTD=
EXTT0=
EXTT1=
EXTT2=
EXTT3=
EXTT4=
EXTT5=
EXTT6=
EXTT7=
PLAYORDER=
